<?xml version="1.0" standalone="no"?>
<!DOCTYPE svg PUBLIC "-//W3C//DTD SVG 1.1//EN" "http://www.w3.org/Graphics/SVG/1.1/DTD/svg11.dtd" >
<svg xmlns="http://www.w3.org/2000/svg">
<metadata></metadata>
<defs>
<font id="432-cai978regular" horiz-adv-x="1128" >
<font-face units-per-em="2048" ascent="1556" descent="-492" />
<missing-glyph horiz-adv-x="563" />
<glyph horiz-adv-x="0" />
<glyph unicode="&#xd;" horiz-adv-x="563" />
<glyph unicode=" "  horiz-adv-x="563" />
<glyph unicode="&#x09;" horiz-adv-x="563" />
<glyph unicode="&#xa0;" horiz-adv-x="563" />
<glyph unicode="!" horiz-adv-x="592" d="M227 51l70 72l70 -72l-70 -71zM264 340v1114l66 21v-1117z" />
<glyph unicode="&#x22;" horiz-adv-x="530" d="M102 881v553h70v-553h-70zM358 881v553h70v-553h-70z" />
<glyph unicode="#" horiz-adv-x="1575" d="M143 506l23 74h342l106 290h-372l22 74h375l180 508h96l-180 -508h275l180 508h94l-178 -508h326l-23 -74h-332l-102 -290h356l-22 -74h-359l-178 -504h-96l180 504h-276l-181 -504h-94l178 504h-340zM608 580h273l100 290h-272z" />
<glyph unicode="$" d="M205 147l49 56q59 -87 133 -129.5t166 -42.5h6v635q-165 42 -250.5 135.5t-85.5 230.5q0 144 93.5 248t242.5 127v94h53v-94q86 -10 153 -43t114 -88l-45 -47q-44 47 -98.5 75.5t-123.5 41.5v-625q153 -44 230.5 -134t77.5 -225q0 -145 -83.5 -249.5t-224.5 -135.5v-98 h-53v98h-8q-110 0 -196 42.5t-150 127.5zM289 1040q0 -115 70 -194t200 -113v612q-120 -9 -195 -94.5t-75 -210.5zM612 31q110 27 176 114.5t66 206.5q0 111 -62.5 188t-179.5 109v-618z" />
<glyph unicode="%" horiz-adv-x="1651" d="M66 965q0 149 107 255.5t259 106.5q154 0 259.5 -105t105.5 -257t-107 -257.5t-258 -105.5q-149 0 -257.5 107.5t-108.5 255.5zM135 965q0 -122 87.5 -210.5t207.5 -88.5q123 0 210 87t87 212q0 126 -85.5 212.5t-211.5 86.5q-122 0 -208.5 -88t-86.5 -211zM313 -25 l955 1352h69l-954 -1352h-70zM856 340q0 149 106.5 255.5t258.5 106.5q153 0 258.5 -105t105.5 -257t-107 -258.5t-257 -106.5q-149 0 -257 108.5t-108 256.5zM924 338q0 -121 87.5 -210t207.5 -89q122 0 209.5 87t87.5 212q0 127 -86 214t-211 87q-123 0 -209 -88.5 t-86 -212.5z" />
<glyph unicode="&#x26;" horiz-adv-x="1014" d="M86 231q0 98 62.5 178t195.5 152q-84 87 -116.5 153t-32.5 140q0 105 77 180.5t187 75.5q100 0 169.5 -70.5t69.5 -175.5q0 -90 -61 -164.5t-195 -146.5l234 -242q53 84 113.5 183t136.5 227l49 -33q-54 -91 -115 -192.5t-137 -227.5l229 -237l-45 -49l-223 225 q-75 -121 -159.5 -183.5t-174.5 -62.5q-113 0 -188.5 77.5t-75.5 192.5zM156 231q0 -91 55.5 -149.5t140.5 -58.5q77 0 145 53.5t144 175.5l-260 268q-115 -59 -170 -129.5t-55 -159.5zM262 852q0 -61 33 -119.5t115 -140.5q113 61 166 126.5t53 143.5q0 81 -49.5 134 t-126.5 53q-81 0 -136 -56.5t-55 -140.5z" />
<glyph unicode="'" horiz-adv-x="274" d="M102 881v553h70v-553h-70z" />
<glyph unicode="(" horiz-adv-x="764" d="M166 614q0 291 129.5 527.5t357.5 361.5l23 -53q-204 -107 -322 -331t-118 -505q0 -280 118 -504t322 -331l-23 -53q-228 124 -357.5 361t-129.5 527z" />
<glyph unicode=")" horiz-adv-x="764" d="M88 -221q204 107 322 331t118 504q0 281 -118 505t-322 331l23 53q228 -125 357.5 -361.5t129.5 -527.5q0 -290 -129.5 -527t-357.5 -361z" />
<glyph unicode="*" horiz-adv-x="1024" d="M246 1092l215 120l-205 117l18 53l213 -127l-4 232l58 16l-4 -248l198 119l41 -41l-219 -121l205 -110l-14 -55l-211 124l4 -239l-58 -10l4 249l-204 -122z" />
<glyph unicode="+" horiz-adv-x="1706" d="M254 580v61h569v580h62v-580h567v-61h-567v-580h-62v580h-569z" />
<glyph unicode="," horiz-adv-x="563" d="M111 -301l170 524h88l-195 -524h-63z" />
<glyph unicode="-" horiz-adv-x="541" d="M106 340v66h328v-66h-328z" />
<glyph unicode="." horiz-adv-x="563" d="M213 51l70 72l69 -72l-69 -71z" />
<glyph unicode="/" horiz-adv-x="569" d="M-109 -190l660 1693h67l-659 -1693h-68z" />
<glyph unicode="0" d="M82 653q0 285 141.5 480.5t339.5 195.5q201 0 342.5 -195.5t141.5 -480.5q0 -284 -141.5 -480t-342.5 -196q-199 0 -340 196.5t-141 479.5zM150 651q0 -254 120.5 -428t292.5 -174q173 0 293.5 174t120.5 428q0 256 -120.5 431t-293.5 175q-171 0 -292 -175.5 t-121 -430.5z" />
<glyph unicode="1" d="M272 1100q110 56 197.5 112t165.5 119v-1331l-70 -18v1214q-42 -31 -99.5 -66t-162.5 -92z" />
<glyph unicode="2" d="M106 0q433 349 604 557t171 373q0 142 -89 232.5t-227 90.5q-139 0 -230 -93.5t-91 -235.5q0 -128 83 -211t232 -103l-43 -59q-157 24 -250.5 126t-93.5 249q0 167 113.5 281t277.5 114q168 0 278.5 -111t110.5 -280q0 -157 -125 -329t-542 -535h669l-26 -66h-822z" />
<glyph unicode="3" d="M164 172l57 45q48 -87 122 -132.5t169 -45.5q134 0 222.5 85t88.5 210q0 138 -86.5 216.5t-240.5 78.5h-107v69h98q154 0 242 74t88 201q0 123 -82 203.5t-209 80.5q-74 0 -147 -35.5t-141 -105.5l-43 43q75 80 160.5 121t176.5 41q156 0 257.5 -99t101.5 -251 q0 -113 -64.5 -197t-169.5 -106q115 -33 176.5 -119.5t61.5 -214.5q0 -153 -110.5 -256t-278.5 -103q-110 0 -197 50t-145 147z" />
<glyph unicode="4" d="M125 354l651 987v-925h211v-62h-211v-354l-65 -18v372h-586zM238 416h473v714z" />
<glyph unicode="5" d="M193 123l51 51q50 -64 117.5 -97.5t146.5 -33.5q145 0 238.5 100t93.5 258q0 155 -93 255t-239 100q-52 0 -107 -15t-120 -47v611h593l-38 -68h-490v-446q55 16 98.5 24t77.5 8q165 0 275 -119t110 -298q0 -184 -115.5 -306.5t-285.5 -122.5q-87 0 -168.5 38t-144.5 108z " />
<glyph unicode="6" d="M121 436q0 228 175 457t505 434l53 -41q-187 -112 -325 -238.5t-242 -279.5q67 58 138.5 86.5t152.5 28.5q181 0 310.5 -131.5t129.5 -317.5q0 -193 -129 -325t-318 -132q-192 0 -321 130t-129 329zM188 436q0 -162 112.5 -276.5t272.5 -114.5q159 0 267 108.5t108 268.5 q0 167 -113 282t-276 115q-150 0 -260.5 -113t-110.5 -270z" />
<glyph unicode="7" d="M109 1237v68h802l-505 -1317h-76l487 1249h-708z" />
<glyph unicode="8" d="M182 338q0 119 68 207.5t184 122.5q-104 30 -169.5 117.5t-65.5 195.5q0 141 106 241.5t258 100.5t258.5 -101t106.5 -241q0 -104 -61.5 -189t-166.5 -124q106 -31 175 -124.5t69 -205.5q0 -150 -110 -256.5t-271 -106.5q-160 0 -270.5 106t-110.5 257zM252 340 q0 -125 90 -211t221 -86t221 87t90 210t-90 210t-221 87t-221 -86.5t-90 -210.5zM268 979q0 -115 86 -197t209 -82t210 82.5t87 196.5q0 113 -87 194.5t-210 81.5t-209 -80.5t-86 -195.5z" />
<glyph unicode="9" d="M119 870q0 194 129.5 325.5t318.5 131.5q193 0 322 -130t129 -329q0 -227 -175 -456.5t-505 -434.5l-53 41q185 111 326.5 240.5t240.5 278.5q-65 -58 -138 -86.5t-155 -28.5q-182 0 -311 131t-129 317zM188 883q0 -167 113 -282.5t277 -115.5q149 0 260.5 112.5 t111.5 262.5q0 168 -112.5 284t-274.5 116q-158 0 -266.5 -109t-108.5 -268z" />
<glyph unicode=":" horiz-adv-x="563" d="M213 51l70 72l69 -72l-69 -69zM213 651l70 72l69 -72l-69 -71z" />
<glyph unicode=";" horiz-adv-x="563" d="M88 -301l170 524h88l-196 -524h-62zM238 451l67 71l72 -71l-72 -72z" />
<glyph unicode="&#x3c;" horiz-adv-x="1706" d="M264 590v41l1178 481v-70l-1069 -432l1069 -432v-69z" />
<glyph unicode="=" horiz-adv-x="1706" d="M254 401v64h1198v-64h-1198zM254 756v63h1198v-63h-1198z" />
<glyph unicode="&#x3e;" horiz-adv-x="1706" d="M264 109v69l1067 432l-1067 432v70l1178 -481v-41z" />
<glyph unicode="?" horiz-adv-x="915" d="M20 1180q49 141 148.5 222t224.5 81q159 0 274 -116t115 -280q0 -95 -41 -166.5t-157 -160.5q-87 -69 -109 -120.5t-22 -141.5v-179l-68 -18v191q0 112 20.5 163.5t69.5 98.5q22 21 67 59q165 139 165 277q0 134 -91.5 230.5t-220.5 96.5q-104 0 -186 -66t-127 -188z M350 51l70 72l69 -72l-69 -71z" />
<glyph unicode="@" horiz-adv-x="2048" d="M127 524q0 161 49.5 304t147.5 262q142 173 343.5 263.5t446.5 90.5q158 0 302 -44t247 -122q127 -98 192.5 -225.5t65.5 -276.5q0 -166 -62 -304t-178 -230q-69 -54 -146.5 -82.5t-156.5 -28.5q-94 0 -141 35.5t-47 105.5q0 7 0.5 16t3.5 29q-47 -87 -124 -137.5 t-165 -50.5q-154 0 -234.5 82.5t-80.5 241.5q0 226 135 384t326 158q98 0 162.5 -44t95.5 -132l61 135h66l-138 -546q-16 -64 -20 -86.5t-4 -34.5q0 -45 32.5 -69.5t92.5 -24.5q70 0 141 33t127 91q81 86 126.5 208t45.5 253q0 270 -203 438t-530 168q-166 0 -309 -47.5 t-258 -140.5q-158 -127 -240 -302t-82 -386q0 -327 222.5 -525t592.5 -198q164 0 328.5 50t302.5 142l23 -34q-144 -107 -305.5 -161t-338.5 -54q-190 0 -344.5 45t-271.5 135q-151 115 -225 268t-74 348zM682 446q0 -120 59 -186.5t164 -66.5q115 0 202 73.5t120 198.5 l65 258q-23 102 -85 155.5t-158 53.5q-156 0 -261.5 -139.5t-105.5 -346.5z" />
<glyph unicode="A" horiz-adv-x="1470" d="M20 12l713 1483l715 -1483l-66 -24l-333 700h-631l-328 -700zM449 754h565l-281 610z" />
<glyph unicode="B" horiz-adv-x="985" d="M156 0v1464h241q223 0 339 -95t116 -277q0 -129 -80.5 -222.5t-216.5 -119.5q145 -27 227 -123.5t82 -239.5q0 -190 -121.5 -288.5t-357.5 -98.5h-229zM225 66h142q220 0 320.5 76t100.5 241q0 168 -114 250t-346 82h-103v-649zM225 782h158q181 0 287 85.5t106 228.5 q0 159 -103.5 231t-338.5 72h-109v-617z" />
<glyph unicode="C" horiz-adv-x="1411" d="M78 733q0 144 53 279.5t152 244.5q110 121 249 180.5t312 59.5q130 0 247.5 -41t221.5 -123l-37 -57q-95 77 -206 117.5t-226 40.5q-296 0 -493 -201.5t-197 -499.5q0 -157 61.5 -294.5t177.5 -241.5q94 -83 205 -125.5t236 -42.5q126 0 240.5 43.5t223.5 132.5l33 -55 q-101 -88 -228 -135.5t-259 -47.5q-150 0 -273.5 44t-222.5 132q-130 116 -200 268.5t-70 321.5z" />
<glyph unicode="D" horiz-adv-x="1135" d="M156 0v1464h127q336 0 547.5 -204t211.5 -525q0 -313 -220.5 -524t-551.5 -211h-114zM225 68h70q292 0 482 189.5t190 481.5q0 290 -186.5 475t-483.5 185h-72v-1331z" />
<glyph unicode="E" horiz-adv-x="930" d="M156 0v1464h653l22 -63h-606v-610h531v-64h-531v-661h635l-22 -66h-682z" />
<glyph unicode="F" horiz-adv-x="819" d="M156 -18v1482h577l23 -63h-529v-641h445v-62h-445v-698z" />
<glyph unicode="G" horiz-adv-x="1520" d="M78 733q0 144 53 279.5t152 244.5q109 122 247.5 181t313.5 59q131 0 249.5 -41.5t219.5 -122.5l-31 -59q-104 78 -215.5 119t-222.5 41q-296 0 -493 -201.5t-197 -499.5q0 -157 61.5 -294.5t177.5 -241.5q94 -83 205 -125.5t236 -42.5q131 0 249.5 46t198.5 128v489 h-364v66h436v-592q-111 -97 -242 -148t-268 -51q-149 0 -273 44t-223 132q-129 115 -199.5 268.5t-70.5 321.5z" />
<glyph unicode="H" horiz-adv-x="1432" d="M156 -18v1482l71 21v-727h979v706l70 21v-1485l-70 -18v710h-979v-692z" />
<glyph unicode="I" horiz-adv-x="410" d="M168 -18v1482l72 21v-1485z" />
<glyph unicode="J" horiz-adv-x="936" d="M10 156l53 51q53 -89 125 -133.5t164 -44.5q170 0 256 119.5t86 355.5v960l72 21v-973q0 -136 -18.5 -221.5t-59.5 -147.5q-57 -85 -145.5 -132.5t-192.5 -47.5q-117 0 -199.5 46.5t-140.5 146.5z" />
<glyph unicode="K" horiz-adv-x="954" d="M156 -18v1482l71 21v-1485zM231 758l666 727l43 -49l-625 -678l637 -729l-49 -47z" />
<glyph unicode="L" horiz-adv-x="893" d="M156 0v1464l69 21v-1419h670l-25 -66h-714z" />
<glyph unicode="M" horiz-adv-x="1788" d="M100 0l201 1485l594 -1344l608 1344l199 -1485l-66 -18l-170 1273l-573 -1265l-557 1265l-172 -1273z" />
<glyph unicode="N" horiz-adv-x="1540" d="M156 -18v1503l1155 -1323v1302l71 21v-1512l-1157 1327v-1300z" />
<glyph unicode="O" horiz-adv-x="1688" d="M78 733q0 145 53 281t152 243q108 119 252.5 182.5t308.5 63.5q139 0 268 -47.5t227 -134.5q131 -117 201 -268.5t70 -319.5q0 -167 -70 -320t-201 -270q-98 -87 -227 -134.5t-268 -47.5t-268.5 47.5t-227.5 134.5q-131 117 -200.5 269t-69.5 321zM154 733 q0 -295 199.5 -499.5t490.5 -204.5t490.5 204.5t199.5 499.5t-200 499t-490 204q-291 0 -490.5 -204t-199.5 -499z" />
<glyph unicode="P" horiz-adv-x="920" d="M156 -18v1482h114q249 0 409.5 -140.5t160.5 -356.5q0 -221 -151.5 -356.5t-399.5 -135.5h-62v-475zM227 543h68q213 0 341 113t128 300q0 196 -131.5 319.5t-339.5 123.5h-66v-856z" />
<glyph unicode="Q" horiz-adv-x="1688" d="M78 733q0 145 53 281t152 243q108 119 252.5 182.5t308.5 63.5q139 0 268 -47.5t227 -134.5q131 -117 201 -268.5t70 -319.5q0 -163 -64.5 -307.5t-193.5 -271.5l200 -148l-45 -51l-213 151q-99 -71 -213 -108t-237 -37q-139 0 -267.5 47.5t-228.5 134.5 q-129 115 -199.5 268.5t-70.5 321.5zM154 733q0 -295 199.5 -499.5t490.5 -204.5t490.5 204.5t199.5 499.5t-200 499t-490 204q-291 0 -490.5 -204t-199.5 -499z" />
<glyph unicode="R" horiz-adv-x="938" d="M156 -18v1482h110q253 0 395 -113.5t142 -314.5q0 -180 -125.5 -292t-339.5 -121l516 -605l-49 -43l-578 682v-657zM227 674h62q203 0 322.5 100t119.5 268q0 163 -120 260t-322 97h-62v-725z" />
<glyph unicode="S" horiz-adv-x="930" d="M63 176l60 47q58 -100 130.5 -147t168.5 -47q147 0 242.5 100.5t95.5 255.5q0 213 -342 331q-44 15 -68 23q-126 44 -192 132t-66 212q0 180 116 297t294 117q92 0 170.5 -36.5t138.5 -106.5l-47 -49q-67 66 -134 97.5t-145 31.5q-141 0 -229 -94.5t-88 -247.5 q0 -213 348 -334l60 -21q126 -44 193 -134.5t67 -217.5q0 -182 -118 -302t-296 -120q-117 0 -210 55.5t-149 157.5z" />
<glyph unicode="T" horiz-adv-x="975" d="M14 1401l19 63h909l19 -63h-437v-1401l-71 -18v1419h-439z" />
<glyph unicode="U" horiz-adv-x="1335" d="M141 573v891l70 21v-920q0 -276 107 -408t329 -132q120 0 217 48.5t158 139.5q46 69 66 157t20 253v841l70 21v-1485l-70 -18v278q-61 -146 -183 -222.5t-292 -76.5q-130 0 -231 47t-169 137q-49 68 -70.5 153.5t-21.5 274.5z" />
<glyph unicode="V" horiz-adv-x="1427" d="M23 1450l65 29l625 -1368l630 1368l60 -29l-692 -1489z" />
<glyph unicode="W" horiz-adv-x="1880" d="M25 1450l69 29l574 -1354l252 608l-299 717l65 29l270 -658l269 658l63 -29l-293 -705l250 -608l533 1342l67 -29l-602 -1485l-291 694l-286 -694z" />
<glyph unicode="X" horiz-adv-x="1206" d="M37 18l530 746l-483 682l59 39l471 -664l473 664l58 -39l-494 -688l527 -740l-64 -36l-506 718l-514 -718z" />
<glyph unicode="Y" horiz-adv-x="1135" d="M41 1452l61 27l478 -928l475 928l59 -29l-752 -1468l-61 22l242 471z" />
<glyph unicode="Z" horiz-adv-x="1171" d="M47 0l909 1399h-868l21 65h968l-907 -1398h971l-21 -66h-1073z" />
<glyph unicode="[" horiz-adv-x="764" d="M258 -242v1706h336v-65h-264v-1575h264v-66h-336z" />
<glyph unicode="\" horiz-adv-x="569" d="M-49 1503h67l660 -1693h-68z" />
<glyph unicode="]" horiz-adv-x="764" d="M170 -176h264v1575h-264v65h336v-1706h-336v66z" />
<glyph unicode="^" horiz-adv-x="2048" d="M426 903l547 553h98l549 -553h-109l-487 483l-489 -483h-109z" />
<glyph unicode="_" horiz-adv-x="1024" d="M0 -422h1024v-61h-1024v61z" />
<glyph unicode="`" horiz-adv-x="1024" d="M309 1200h109l209 -328h-64z" />
<glyph unicode="a" horiz-adv-x="723" d="M72 238q0 112 75.5 188t188.5 76q69 0 119 -27t82 -82v164q0 75 -34 105t-116 30q-20 0 -45 -1.5t-57 -3.5l18 62q24 2 47 2.5t58 0.5q113 0 153.5 -39.5t40.5 -149.5v-555l-61 -22v112q-35 -57 -92.5 -90t-122.5 -33q-111 0 -182.5 74.5t-71.5 188.5zM139 238 q0 -84 57.5 -142.5t139.5 -58.5t139 59t57 142q0 82 -57.5 141t-138.5 59q-83 0 -140 -58t-57 -142z" />
<glyph unicode="b" horiz-adv-x="932" d="M88 457v59v948l66 21v-916q53 91 138.5 142t184.5 51q164 0 278.5 -115.5t114.5 -279.5q0 -163 -114.5 -278.5t-278.5 -115.5q-97 0 -180.5 42.5t-136.5 119.5q-39 55 -55.5 122.5t-16.5 199.5zM158 369q0 -138 93 -234t228 -96t227.5 96t92.5 234q0 136 -93 231.5 t-227 95.5t-227.5 -95t-93.5 -232z" />
<glyph unicode="c" horiz-adv-x="719" d="M63 367q0 165 114 280t278 115q72 0 133 -14.5t106 -42.5l-14 -68q-59 32 -111 45.5t-114 13.5q-135 0 -227.5 -94.5t-92.5 -232.5q0 -139 92 -234.5t228 -95.5q59 0 117.5 19.5t115.5 58.5l12 -62q-50 -40 -113 -61t-132 -21q-164 0 -278 114.5t-114 279.5z" />
<glyph unicode="d" horiz-adv-x="965" d="M63 367q0 163 114 279t278 116q107 0 192.5 -52t128.5 -143v897l68 21v-1475l-68 -20v174q-56 -93 -139 -143t-182 -50q-164 0 -278 115.5t-114 280.5zM133 367q0 -137 94 -232.5t228 -95.5t226.5 95t92.5 233t-92 232.5t-227 94.5q-136 0 -229 -95.5t-93 -231.5z" />
<glyph unicode="e" horiz-adv-x="766" d="M66 367q0 168 112.5 281.5t276.5 113.5q91 0 162 -36t147 -122l-606 -366q44 -97 120.5 -148t176.5 -51q60 0 117.5 19t115.5 59v-72q-56 -36 -113.5 -54t-119.5 -18q-165 0 -277 113t-112 281zM129 373q0 -27 1.5 -43.5t4.5 -32.5l522 315q-43 44 -92.5 64t-109.5 20 q-136 0 -231 -95t-95 -228z" />
<glyph unicode="f" horiz-adv-x="410" d="M135 -18v1140q0 158 63.5 244t192.5 104v-69q-96 -15 -142 -79.5t-46 -182.5v-404h188v-63h-188v-672z" />
<glyph unicode="g" horiz-adv-x="764" d="M80 463q0 128 87 206.5t230 78.5q13 0 43.5 -2.5t48.5 -2.5q38 0 142 15q28 4 43 6l-31 -74q-16 -2 -27 -3t-20 -1q-6 0 -18.5 1t-18.5 1q53 -33 83 -90t30 -123q0 -85 -50.5 -149t-140.5 -93q91 -33 141 -100.5t50 -157.5q0 -126 -89.5 -205t-232.5 -79q-77 0 -145 31.5 t-113 89.5l29 69q45 -68 104.5 -101.5t136.5 -33.5q103 0 171.5 66.5t68.5 164.5q0 94 -67 156t-170 62q-56 0 -100.5 -16.5t-98.5 -57.5l-37 43q31 26 62 43.5t63 28.5q-85 27 -129.5 85.5t-44.5 141.5zM152 473q0 -87 65.5 -148t159.5 -61t159.5 61.5t65.5 147.5 q0 87 -65.5 149t-159.5 62t-159.5 -62t-65.5 -149z" />
<glyph unicode="h" horiz-adv-x="799" d="M121 -18v1482l65 21v-877q39 67 106.5 105.5t145.5 38.5q126 0 186 -76.5t60 -237.5v-438l-68 -18v458q0 126 -48.5 187t-147.5 61t-166.5 -78t-67.5 -194v-416z" />
<glyph unicode="i" horiz-adv-x="328" d="M98 1053l66 65l65 -65l-65 -68zM131 -18v743l66 18v-743z" />
<glyph unicode="j" horiz-adv-x="328" d="M35 -270q54 24 75 67.5t21 184.5v743l66 18v-794q0 -147 -35 -203.5t-127 -85.5v70zM98 1053l66 65l65 -65l-65 -68z" />
<glyph unicode="k" horiz-adv-x="645" d="M123 -18v1482l67 21v-1137l361 387l43 -41l-332 -354l346 -317l-45 -46l-373 345v-322z" />
<glyph unicode="l" horiz-adv-x="328" d="M131 -18v1482l66 21v-1485z" />
<glyph unicode="m" horiz-adv-x="1100" d="M121 -18v735l65 18v-114q31 61 84 96t117 35q66 0 113.5 -37.5t68.5 -106.5q39 71 93 107.5t120 36.5q104 0 151.5 -74.5t47.5 -239.5v-438l-66 -18v458q0 138 -34 193t-113 55q-91 0 -137.5 -70.5t-46.5 -207.5v-410l-66 -18v458q0 138 -34.5 193t-112.5 55 q-90 0 -137.5 -70t-47.5 -202v-416z" />
<glyph unicode="n" horiz-adv-x="799" d="M121 -18v735l65 18v-127q39 67 106.5 105.5t145.5 38.5q126 0 186 -76.5t60 -237.5v-438l-68 -18v458q0 126 -48.5 187t-147.5 61t-166.5 -78t-67.5 -194v-416z" />
<glyph unicode="o" horiz-adv-x="909" d="M63 367q0 165 114 280t278 115t278.5 -115.5t114.5 -279.5q0 -163 -114.5 -278.5t-278.5 -115.5t-278 114.5t-114 279.5zM135 369q0 -139 92 -234.5t228 -95.5q134 0 227.5 96t93.5 234q0 136 -93.5 231.5t-227.5 95.5q-135 0 -227.5 -95t-92.5 -232z" />
<glyph unicode="p" horiz-adv-x="965" d="M121 -336v1053l65 18v-174q52 95 137 148t187 53q163 0 277 -116t114 -279q0 -164 -113.5 -279t-277.5 -115q-108 0 -194.5 51t-129.5 140v-481zM188 369q0 -138 93.5 -234t228.5 -96t228 96t93 234q0 136 -93.5 231.5t-227.5 95.5t-228 -95t-94 -232z" />
<glyph unicode="q" horiz-adv-x="965" d="M63 367q0 164 114 279.5t278 115.5q101 0 185.5 -52.5t135.5 -148.5v174l68 -18v-1053l-68 19v481q-43 -89 -128.5 -140t-192.5 -51q-164 0 -278 115t-114 279zM133 369q0 -138 93.5 -234t228.5 -96t227 95.5t92 234.5q0 138 -92 232.5t-227 94.5q-134 0 -228 -95.5 t-94 -231.5z" />
<glyph unicode="r" horiz-adv-x="426" d="M121 -16v733l65 18v-133q35 73 87.5 112.5t115.5 40.5v-83h-27q-81 0 -128.5 -68.5t-47.5 -187.5v-414z" />
<glyph unicode="s" horiz-adv-x="537" d="M66 66l36 49q33 -42 70.5 -63t79.5 -21q68 0 111 43t43 112q0 60 -31.5 95.5t-126.5 70.5q-98 35 -135 78t-37 115q0 92 60 153.5t151 61.5q53 0 98 -22.5t82 -67.5l-39 -41q-34 37 -68.5 53t-78.5 16q-57 0 -96.5 -42t-39.5 -105q0 -52 28.5 -82t125.5 -63 q92 -33 133 -83.5t41 -129.5q0 -95 -62.5 -157.5t-156.5 -62.5q-56 0 -105.5 24.5t-82.5 68.5z" />
<glyph unicode="t" horiz-adv-x="537" d="M100 672l17 63h57v230l68 18v-248h221v-63h-221v-422q0 -118 28.5 -159.5t102.5 -41.5q17 0 38 2.5t47 7.5l-10 -63q-27 -7 -44.5 -9.5t-32.5 -2.5q-109 0 -153 57t-44 215v416h-74z" />
<glyph unicode="u" horiz-adv-x="799" d="M115 287v438l67 18v-456q0 -126 48 -187t147 -61q98 0 165.5 77.5t67.5 192.5v416l68 18v-733l-68 -18v125q-37 -66 -103.5 -104t-146.5 -38q-127 0 -186 75t-59 237z" />
<glyph unicode="v" horiz-adv-x="768" d="M45 719l66 26l282 -651l285 651l63 -22l-352 -778z" />
<glyph unicode="w" horiz-adv-x="1370" d="M41 723l61 27l283 -639l307 657l299 -659l309 639l56 -25l-369 -756l-299 660l-307 -660z" />
<glyph unicode="x" horiz-adv-x="717" d="M43 25l276 348l-266 336l53 43l252 -324l254 322l50 -39l-263 -332l273 -350l-51 -45l-263 342l-268 -340z" />
<glyph unicode="y" horiz-adv-x="772" d="M29 715l61 30l311 -606l297 602l58 -28l-531 -1059l-59 29l199 389z" />
<glyph unicode="z" horiz-adv-x="725" d="M41 0l526 674h-485l20 61h588l-526 -674h516l-23 -61h-616z" />
<glyph unicode="{" horiz-adv-x="1024" d="M180 494l1 73q9 -1 19.5 -1.5t30.5 -0.5q140 0 198 65.5t58 225.5v238q0 230 68.5 306.5t255.5 76.5h33v-70h-37q-139 0 -188.5 -53.5t-49.5 -220.5v-242q0 -178 -42 -252.5t-150 -108.5q108 -33 150 -107.5t42 -252.5v-242q0 -167 49.5 -220.5t188.5 -53.5h37v-68h-33 q-187 0 -255.5 76t-68.5 305v238q0 161 -58.5 226t-203.5 65q-7 0 -21.5 -1t-23.5 -1z" />
<glyph unicode="|" horiz-adv-x="1024" d="M475 -483v2048h74v-2048h-74z" />
<glyph unicode="}" horiz-adv-x="1024" d="M182 -344h39q138 0 186 52t48 220v242q0 176 43 251.5t151 108.5q-108 34 -151 109.5t-43 251.5v242q0 169 -48.5 221.5t-187.5 52.5h-37v70h33q186 0 254 -76.5t68 -306.5v-238q0 -160 58 -225.5t200 -65.5q20 0 30.5 0.5t20.5 1.5v-73q-9 0 -23.5 1t-21.5 1 q-146 0 -205 -65.5t-59 -225.5v-238q0 -229 -68 -305t-254 -76h-33v70z" />
<glyph unicode="~" horiz-adv-x="1706" d="M178 489v74q102 74 198.5 111t188.5 37q44 0 92 -9.5t101 -27.5q30 -10 87 -32q197 -73 298 -73q82 0 173.5 38t213.5 122v-72q-105 -73 -201.5 -110t-185.5 -37q-60 0 -121 13t-167 52q-13 5 -38 14q-166 62 -252 62q-81 0 -171 -37t-216 -125z" />
<glyph unicode="&#xa0;" />
<glyph unicode="&#xa1;" horiz-adv-x="592" d="M227 1413l68 72l70 -72l-70 -72zM262 -10v1116l68 18v-1116z" />
<glyph unicode="&#xa2;" d="M229 399q0 155 97 265.5t245 126.5v127h52v-121q71 -5 127 -20.5t96 -41.5l-12 -67q-53 28 -104 43t-107 18v-659q46 0 104 20t115 57l10 -59q-42 -35 -98 -55.5t-131 -28.5v-164h-52v166q-152 21 -247 130.5t-95 262.5zM301 399q0 -128 75.5 -219t194.5 -106v653 q-120 -15 -195 -106t-75 -222z" />
<glyph unicode="&#xa3;" d="M39 250q0 120 74 197t188 77q58 0 113.5 -23.5t103.5 -68.5v199h-280v55h280v137q-126 42 -224.5 136t-158.5 231l49 29q66 -131 151 -215.5t183 -118.5v133q0 196 61 291.5t187 95.5q115 0 187.5 -78.5t72.5 -202.5q0 -144 -98 -232.5t-260 -88.5q-15 0 -36 2.5t-52 7.5 v-127h274v-55h-274v-260q104 -156 192 -214.5t211 -58.5q31 0 49 0.5t37 1.5v-57q-20 -2 -40 -3t-48 -1q-132 0 -230 59t-180 187q-15 -145 -88.5 -226.5t-187.5 -81.5q-110 0 -183 78t-73 195zM98 252q0 -92 57.5 -154.5t139.5 -62.5q101 0 159.5 84t61.5 233 q-54 59 -111 89t-114 30q-85 0 -139 -61t-54 -158zM580 872q26 -7 49.5 -11.5t40.5 -4.5q135 0 213 72t78 196q0 100 -56 164t-141 64q-97 0 -140.5 -82.5t-43.5 -268.5v-129z" />
<glyph unicode="&#xa4;" d="M16 541l11 47h116q-1 11 -1.5 24t-0.5 39q0 16 1 35.5t3 56.5h-129l11 48h125q37 240 189.5 389t363.5 149q96 0 190.5 -39.5t169.5 -111.5l-41 -54q-70 69 -152 105.5t-167 36.5q-186 0 -317.5 -130.5t-166.5 -344.5h678l-10 -48h-674q-2 -15 -3 -34t-1 -58 q0 -26 0.5 -39.5t1.5 -23.5h631l-10 -47h-615q30 -222 162.5 -361t316.5 -139q98 0 181 37t159 112l39 -51q-71 -75 -171 -118.5t-201 -43.5q-219 0 -372.5 157t-185.5 407h-131z" />
<glyph unicode="&#xa5;" d="M139 1290l60 29l376 -668l379 668l60 -29l-326 -561h295v-47h-319l-58 -98v-58h377v-47h-377v-479h-67v479h-373v47h373v58l-58 98h-315v47h289z" />
<glyph unicode="&#xa6;" horiz-adv-x="1024" d="M475 -350v758h74v-758h-74zM475 674v758h74v-758h-74z" />
<glyph unicode="&#xa7;" horiz-adv-x="1024" d="M186 725q0 110 65 188.5t177 102.5q-91 28 -137.5 84t-46.5 139q0 109 80.5 183.5t199.5 74.5q106 0 184 -60.5t107 -166.5l-59 -21q-36 95 -96.5 144t-143.5 49q-88 0 -144.5 -57t-56.5 -146q0 -70 42.5 -113t146.5 -73q202 -59 267 -124.5t65 -178.5q0 -104 -61.5 -181 t-166.5 -104q94 -31 142.5 -91t48.5 -145q0 -112 -87 -188t-218 -76q-100 0 -176 52t-117 149l57 33q34 -86 99 -132.5t151 -46.5q95 0 157 59t62 148q0 85 -54.5 133t-183.5 74q-155 33 -229 104t-74 187zM258 741q0 -104 73 -173.5t183 -69.5q102 0 174 70t72 165 q0 103 -71 172.5t-177 69.5q-110 0 -182 -67t-72 -167z" />
<glyph unicode="&#xa8;" horiz-adv-x="1024" d="M283 1016l71 74l72 -74l-72 -72zM600 1016l70 74l71 -74l-71 -72z" />
<glyph unicode="&#xa9;" horiz-adv-x="1706" d="M125 719q0 144 55.5 277t159.5 239q102 104 232 157.5t280 53.5t281.5 -54t236.5 -159q103 -103 157 -235t54 -279q0 -150 -53.5 -280.5t-155.5 -231.5q-106 -105 -241 -161t-279 -56t-276 55t-236 160q-104 104 -159.5 236.5t-55.5 277.5zM188 719q0 -131 51 -251.5 t146 -215.5q96 -96 216.5 -147.5t250.5 -51.5t252 52t221 149q94 91 143.5 210t49.5 255q0 135 -49.5 255t-143.5 214q-96 95 -216 144.5t-257 49.5q-136 0 -254 -48.5t-211 -143.5q-96 -97 -147.5 -219t-51.5 -252zM475 717q0 210 104.5 333.5t280.5 123.5q128 0 218 -70.5 t104 -181.5h-80q-22 87 -87.5 136.5t-160.5 49.5q-136 0 -213.5 -103.5t-77.5 -287.5q0 -176 79.5 -280.5t211.5 -104.5q101 0 173 57.5t89 151.5h74q-11 -121 -108 -199t-236 -78q-169 0 -270 123t-101 330z" />
<glyph unicode="&#xaa;" horiz-adv-x="543" d="M53 1124q0 79 57.5 133t141.5 54q53 0 90 -19.5t61 -58.5v115q0 52 -25.5 74t-86.5 22q-15 0 -57 -3q-14 -1 -21 -1l14 42q19 2 36 2.5t42 0.5q85 0 116.5 -27.5t31.5 -103.5v-389l-47 -17v80q-26 -40 -69 -63t-93 -23q-83 0 -137 52t-54 130zM104 1124q0 -58 43 -98.5 t105 -40.5t104.5 40.5t42.5 98.5t-43.5 100t-103.5 42q-62 0 -105 -41t-43 -101z" />
<glyph unicode="&#xab;" horiz-adv-x="682" d="M57 348l242 246l37 -43l-193 -203l193 -201l-37 -43zM324 348l239 246l39 -43l-192 -203l192 -201l-39 -43z" />
<glyph unicode="&#xac;" horiz-adv-x="1706" d="M254 791v63h1198v-502h-59v439h-1139z" />
<glyph unicode="&#xad;" horiz-adv-x="541" d="M106 340v66h328v-66h-328z" />
<glyph unicode="&#xae;" horiz-adv-x="1706" d="M125 719q0 144 55.5 277t159.5 239q102 104 232 157.5t280 53.5q149 0 281 -54t237 -157q103 -103 157 -235.5t54 -280.5q0 -150 -53 -279.5t-156 -230.5q-107 -106 -241.5 -162.5t-278.5 -56.5t-276 55t-236 160q-104 104 -159.5 236.5t-55.5 277.5zM188 719 q0 -130 51.5 -250.5t147.5 -216.5t216 -147.5t249 -51.5q131 0 254 52t221 149q94 92 142.5 210t48.5 255q0 133 -50 253.5t-145 215.5q-97 96 -216.5 145t-254.5 49q-136 0 -255 -49t-212 -143q-95 -97 -146 -218.5t-51 -252.5zM573 305v850h304q180 0 263 -56.5t83 -178.5 q0 -88 -57 -147.5t-150 -70.5l192 -397h-104l-182 383h-260v-383h-89zM662 760h190q155 0 211.5 36.5t56.5 129.5q0 81 -64 119t-202 38h-192v-323z" />
<glyph unicode="&#xaf;" horiz-adv-x="1024" d="M289 985v62h446v-62h-446z" />
<glyph unicode="&#xb0;" horiz-adv-x="674" d="M68 1178q0 112 79 191t191 79q110 0 189 -79.5t79 -190.5t-79 -190t-191 -79q-113 0 -190.5 78t-77.5 191zM119 1178q0 -92 64 -156t155 -64t154 64t63 156q0 91 -63.5 155t-153.5 64q-91 0 -155 -64t-64 -155z" />
<glyph unicode="&#xb1;" horiz-adv-x="1706" d="M254 70v63h1198v-63h-1198zM254 731v64h569v356h62v-356h567v-64h-567v-356h-62v356h-569z" />
<glyph unicode="&#xb2;" horiz-adv-x="745" d="M70 522q288 212 400 335.5t112 221.5q0 86 -59 140.5t-150 54.5q-92 0 -151.5 -56t-59.5 -141q0 -77 54.5 -126.5t152.5 -61.5l-29 -37q-104 15 -165.5 76t-61.5 149q0 101 75 169.5t185 68.5t183 -67t73 -169q0 -94 -85 -199t-356 -319h443l-19 -39h-542z" />
<glyph unicode="&#xb3;" horiz-adv-x="745" d="M109 625l36 28q33 -53 81.5 -80.5t111.5 -27.5q88 0 146.5 51t58.5 127q0 83 -57 129.5t-158 46.5h-72v43h66q101 0 159 44t58 120q0 74 -53.5 122t-137.5 48q-51 0 -99 -21.5t-91 -62.5l-29 27q49 47 105.5 71.5t117.5 24.5q102 0 169 -60t67 -151q0 -67 -42.5 -117 t-111.5 -63q75 -20 115.5 -72t40.5 -129q0 -92 -72.5 -153.5t-183.5 -61.5q-72 0 -129.5 29.5t-95.5 87.5z" />
<glyph unicode="&#xb4;" horiz-adv-x="1024" d="M397 872l209 328h109l-254 -328h-64z" />
<glyph unicode="&#xb5;" horiz-adv-x="1040" d="M-115 -426l316 1483h67l-123 -584q-11 -54 -16.5 -94.5t-5.5 -71.5q0 -131 67 -202.5t189 -71.5q133 0 239 124.5t152 338.5l119 561h69l-192 -887q-3 -15 -4.5 -30.5t-1.5 -28.5q0 -38 19 -55t61 -17q14 0 21.5 0.5t14.5 1.5l-12 -61q-10 -3 -20.5 -4t-30.5 -1 q-60 0 -90.5 28.5t-30.5 84.5q0 12 2.5 30.5t7.5 46.5q-62 -100 -149 -151t-197 -51q-107 0 -180 54t-96 151l-125 -594h-70z" />
<glyph unicode="&#xb6;" horiz-adv-x="1024" d="M98 1130q0 157 108 253t288 96h432v-58h-133v-1421h-58v1421h-196v-1421h-60v782q-175 8 -278 102t-103 246z" />
<glyph unicode="&#xb7;" horiz-adv-x="563" d="M223 653q0 25 17.5 43.5t42.5 18.5q24 0 42.5 -18.5t18.5 -43.5q0 -24 -18 -41.5t-43 -17.5t-42.5 17.5t-17.5 41.5z" />
<glyph unicode="&#xb8;" horiz-adv-x="1024" d="M301 -358q58 -16 114.5 -23.5t110.5 -7.5q67 0 103.5 27t36.5 77q0 61 -39.5 88t-126.5 27q-19 0 -29.5 -0.5t-19.5 -1.5l34 172h41l-24 -121h16q103 0 155 -38.5t52 -114.5q0 -81 -53.5 -125.5t-151.5 -44.5q-51 0 -105.5 8.5t-113.5 25.5v52z" />
<glyph unicode="&#xb9;" horiz-adv-x="745" d="M180 1182q72 35 129.5 68.5t110.5 70.5v-799l-47 -10v727q-33 -21 -75 -44.5t-97 -49.5z" />
<glyph unicode="&#xba;" horiz-adv-x="682" d="M47 1214q0 116 85.5 196.5t209.5 80.5t209.5 -80.5t85.5 -196.5q0 -113 -86 -193.5t-209 -80.5q-124 0 -209.5 79.5t-85.5 194.5zM102 1217q0 -97 69.5 -164.5t170.5 -67.5q100 0 170 67.5t70 164.5q0 96 -69.5 162.5t-170.5 66.5t-170.5 -66.5t-69.5 -162.5z" />
<glyph unicode="&#xbb;" horiz-adv-x="682" d="M82 147l192 201l-192 203l37 43l241 -246l-241 -244zM346 147l193 201l-193 203l37 43l242 -246l-242 -244z" />
<glyph unicode="&#xbc;" horiz-adv-x="1763" d="M172 1192q65 30 121 61.5t106 67.5v-746l-43 -10v680q-26 -17 -61 -36t-105 -52zM369 -25l956 1352h68l-955 -1352h-69zM1130 199l412 553v-519h133v-34h-133v-199l-41 -10v209h-371zM1202 233h299v400z" />
<glyph unicode="&#xbd;" horiz-adv-x="1763" d="M172 1192q65 30 121 61.5t106 67.5v-746l-43 -10v680q-26 -17 -61 -36t-105 -52zM369 -25l956 1352h68l-955 -1352h-69zM1120 0q275 197 381.5 312.5t106.5 207.5q0 80 -56.5 131t-142.5 51q-87 0 -145 -52.5t-58 -131.5q0 -72 52.5 -118.5t146.5 -57.5l-27 -33 q-99 14 -158 70.5t-59 138.5q0 94 71.5 157.5t174.5 63.5q106 0 176 -62t70 -157q0 -87 -79 -183t-341 -300h422l-19 -37h-516z" />
<glyph unicode="&#xbe;" horiz-adv-x="1763" d="M102 672l37 24q31 -49 77 -73.5t108 -24.5q83 0 138.5 47t55.5 117q0 78 -54.5 122t-152.5 44h-65v39h61q96 0 151.5 41t55.5 112q0 69 -51.5 114.5t-130.5 45.5q-47 0 -93.5 -20.5t-88.5 -59.5l-27 25q48 45 101.5 67.5t111.5 22.5q98 0 161.5 -56t63.5 -141 q0 -63 -40.5 -109.5t-106.5 -58.5q72 -18 110.5 -67t38.5 -121q0 -85 -69.5 -143t-174.5 -58q-69 0 -124 28t-93 83zM369 -25l956 1352h68l-955 -1352h-69zM1130 199l412 553v-519h133v-34h-133v-199l-41 -10v209h-371zM1202 233h299v400z" />
<glyph unicode="&#xbf;" horiz-adv-x="915" d="M135 375q0 96 41.5 167.5t155.5 159.5q88 68 110.5 120t22.5 143v178l65 18v-190q0 -114 -20 -164.5t-70 -97.5q-22 -22 -68 -61q-163 -138 -163 -275q0 -135 91.5 -231.5t219.5 -96.5q105 0 187.5 66.5t128.5 187.5l59 -16q-49 -143 -148 -223t-225 -80 q-159 0 -273 115.5t-114 279.5zM426 1411l70 72l69 -72l-69 -72z" />
<glyph unicode="&#xc0;" horiz-adv-x="1470" d="M20 12l713 1483l715 -1483l-66 -24l-333 700h-631l-328 -700zM449 754h565l-281 610zM532 1941h109l209 -328h-64z" />
<glyph unicode="&#xc1;" horiz-adv-x="1470" d="M20 12l713 1483l715 -1483l-66 -24l-333 700h-631l-328 -700zM449 754h565l-281 610zM620 1613l209 328h109l-254 -328h-64z" />
<glyph unicode="&#xc2;" horiz-adv-x="1470" d="M20 12l713 1483l715 -1483l-66 -24l-333 700h-631l-328 -700zM449 754h565l-281 610zM481 1613l205 328h98l203 -328h-62l-190 273l-190 -273h-64z" />
<glyph unicode="&#xc3;" horiz-adv-x="1470" d="M20 12l713 1483l715 -1483l-66 -24l-333 700h-631l-328 -700zM449 754h565l-281 610zM469 1687q21 64 59.5 95.5t93.5 31.5q12 0 25 -1.5t30 -4.5l116 -25q25 -5 37.5 -6.5t21.5 -1.5q32 0 54.5 15t37.5 47h57q-27 -70 -61.5 -98.5t-89.5 -28.5q-15 0 -32.5 2.5 t-37.5 7.5l-113 25q-14 3 -26.5 4.5t-24.5 1.5q-28 0 -49.5 -15t-42.5 -49h-55z" />
<glyph unicode="&#xc4;" horiz-adv-x="1470" d="M20 12l713 1483l715 -1483l-66 -24l-333 700h-631l-328 -700zM449 754h565l-281 610zM506 1757l71 74l72 -74l-72 -72zM823 1757l70 74l71 -74l-71 -72z" />
<glyph unicode="&#xc5;" horiz-adv-x="1470" d="M20 12l713 1483l715 -1483l-66 -24l-333 700h-631l-328 -700zM449 754h565l-281 610zM504 1792q0 95 66 161t161 66q96 0 163 -66t67 -161q0 -96 -67 -162.5t-163 -66.5q-95 0 -161 66.5t-66 162.5zM563 1792q0 -71 48.5 -119.5t119.5 -48.5t120.5 49t49.5 119 q0 71 -49 119.5t-121 48.5q-71 0 -119.5 -48.5t-48.5 -119.5z" />
<glyph unicode="&#xc6;" horiz-adv-x="1698" d="M-57 23l864 1441h500l18 -63h-448l186 -633h426v-61h-406l197 -641h451l-35 -66h-475l-211 707h-576l-424 -717zM473 768h518l-176 584z" />
<glyph unicode="&#xc7;" horiz-adv-x="1411" d="M78 733q0 144 53 279.5t152 244.5q110 121 249 180.5t312 59.5q130 0 247.5 -41t221.5 -123l-37 -57q-95 77 -206 117.5t-226 40.5q-296 0 -493 -201.5t-197 -499.5q0 -157 61.5 -294.5t177.5 -241.5q94 -83 205 -125.5t236 -42.5q126 0 240.5 43.5t223.5 132.5l33 -55 q-101 -88 -228 -135.5t-259 -47.5q-150 0 -273.5 44t-222.5 132q-130 116 -200 268.5t-70 321.5zM598 -358q58 -16 114.5 -23.5t110.5 -7.5q67 0 103.5 27t36.5 77q0 61 -39.5 88t-126.5 27q-19 0 -29.5 -0.5t-19.5 -1.5l34 172h41l-24 -121h16q103 0 155 -38.5t52 -114.5 q0 -81 -53.5 -125.5t-151.5 -44.5q-51 0 -105.5 8.5t-113.5 25.5v52z" />
<glyph unicode="&#xc8;" horiz-adv-x="930" d="M156 0v1464h653l22 -63h-606v-610h531v-64h-531v-661h635l-22 -66h-682zM262 1941h109l209 -328h-64z" />
<glyph unicode="&#xc9;" horiz-adv-x="930" d="M156 0v1464h653l22 -63h-606v-610h531v-64h-531v-661h635l-22 -66h-682zM350 1613l209 328h109l-254 -328h-64z" />
<glyph unicode="&#xca;" horiz-adv-x="930" d="M156 0v1464h653l22 -63h-606v-610h531v-64h-531v-661h635l-22 -66h-682zM211 1613l205 328h98l203 -328h-62l-190 273l-190 -273h-64z" />
<glyph unicode="&#xcb;" horiz-adv-x="930" d="M156 0v1464h653l22 -63h-606v-610h531v-64h-531v-661h635l-22 -66h-682zM236 1757l71 74l72 -74l-72 -72zM553 1757l70 74l71 -74l-71 -72z" />
<glyph unicode="&#xcc;" horiz-adv-x="410" d="M2 1941h109l209 -328h-64zM168 -18v1482l72 21v-1485z" />
<glyph unicode="&#xcd;" horiz-adv-x="410" d="M90 1613l209 328h109l-254 -328h-64zM168 -18v1482l72 21v-1485z" />
<glyph unicode="&#xce;" horiz-adv-x="410" d="M-49 1613l205 328h98l203 -328h-62l-190 273l-190 -273h-64zM168 -18v1482l72 21v-1485z" />
<glyph unicode="&#xcf;" horiz-adv-x="410" d="M-24 1757l71 74l72 -74l-72 -72zM168 -18v1482l72 21v-1485zM293 1757l70 74l71 -74l-71 -72z" />
<glyph unicode="&#xd0;" horiz-adv-x="1184" d="M47 696v58h156v710h127q336 0 548 -204t212 -525q0 -313 -221 -524t-552 -211h-114v696h-156zM274 68h68q292 0 482 189.5t190 481.5q0 290 -186.5 475t-483.5 185h-70v-645h330v-58h-330v-628z" />
<glyph unicode="&#xd1;" horiz-adv-x="1540" d="M156 -18v1503l1155 -1323v1302l71 21v-1512l-1157 1327v-1300zM504 1687q21 64 59.5 95.5t93.5 31.5q12 0 25 -1.5t30 -4.5l116 -25q25 -5 37.5 -6.5t21.5 -1.5q32 0 54.5 15t37.5 47h57q-27 -70 -61.5 -98.5t-89.5 -28.5q-15 0 -32.5 2.5t-37.5 7.5l-113 25 q-14 3 -26.5 4.5t-24.5 1.5q-28 0 -49.5 -15t-42.5 -49h-55z" />
<glyph unicode="&#xd2;" horiz-adv-x="1688" d="M78 733q0 145 53 281t152 243q108 119 252.5 182.5t308.5 63.5q139 0 268 -47.5t227 -134.5q131 -117 201 -268.5t70 -319.5q0 -167 -70 -320t-201 -270q-98 -87 -227 -134.5t-268 -47.5t-268.5 47.5t-227.5 134.5q-131 117 -200.5 269t-69.5 321zM154 733 q0 -295 199.5 -499.5t490.5 -204.5t490.5 204.5t199.5 499.5t-200 499t-490 204q-291 0 -490.5 -204t-199.5 -499zM641 1941h109l209 -328h-64z" />
<glyph unicode="&#xd3;" horiz-adv-x="1688" d="M78 733q0 145 53 281t152 243q108 119 252.5 182.5t308.5 63.5q139 0 268 -47.5t227 -134.5q131 -117 201 -268.5t70 -319.5q0 -167 -70 -320t-201 -270q-98 -87 -227 -134.5t-268 -47.5t-268.5 47.5t-227.5 134.5q-131 117 -200.5 269t-69.5 321zM154 733 q0 -295 199.5 -499.5t490.5 -204.5t490.5 204.5t199.5 499.5t-200 499t-490 204q-291 0 -490.5 -204t-199.5 -499zM729 1613l209 328h109l-254 -328h-64z" />
<glyph unicode="&#xd4;" horiz-adv-x="1688" d="M78 733q0 145 53 281t152 243q108 119 252.5 182.5t308.5 63.5q139 0 268 -47.5t227 -134.5q131 -117 201 -268.5t70 -319.5q0 -167 -70 -320t-201 -270q-98 -87 -227 -134.5t-268 -47.5t-268.5 47.5t-227.5 134.5q-131 117 -200.5 269t-69.5 321zM154 733 q0 -295 199.5 -499.5t490.5 -204.5t490.5 204.5t199.5 499.5t-200 499t-490 204q-291 0 -490.5 -204t-199.5 -499zM590 1613l205 328h98l203 -328h-62l-190 273l-190 -273h-64z" />
<glyph unicode="&#xd5;" horiz-adv-x="1688" d="M78 733q0 145 53 281t152 243q108 119 252.5 182.5t308.5 63.5q139 0 268 -47.5t227 -134.5q131 -117 201 -268.5t70 -319.5q0 -167 -70 -320t-201 -270q-98 -87 -227 -134.5t-268 -47.5t-268.5 47.5t-227.5 134.5q-131 117 -200.5 269t-69.5 321zM154 733 q0 -295 199.5 -499.5t490.5 -204.5t490.5 204.5t199.5 499.5t-200 499t-490 204q-291 0 -490.5 -204t-199.5 -499zM578 1687q21 64 59.5 95.5t93.5 31.5q12 0 25 -1.5t30 -4.5l116 -25q25 -5 37.5 -6.5t21.5 -1.5q32 0 54.5 15t37.5 47h57q-27 -70 -61.5 -98.5t-89.5 -28.5 q-15 0 -32.5 2.5t-37.5 7.5l-113 25q-14 3 -26.5 4.5t-24.5 1.5q-28 0 -49.5 -15t-42.5 -49h-55z" />
<glyph unicode="&#xd6;" horiz-adv-x="1688" d="M78 733q0 145 53 281t152 243q108 119 252.5 182.5t308.5 63.5q139 0 268 -47.5t227 -134.5q131 -117 201 -268.5t70 -319.5q0 -167 -70 -320t-201 -270q-98 -87 -227 -134.5t-268 -47.5t-268.5 47.5t-227.5 134.5q-131 117 -200.5 269t-69.5 321zM154 733 q0 -295 199.5 -499.5t490.5 -204.5t490.5 204.5t199.5 499.5t-200 499t-490 204q-291 0 -490.5 -204t-199.5 -499zM615 1757l71 74l72 -74l-72 -72zM932 1757l70 74l71 -74l-71 -72z" />
<glyph unicode="&#xd7;" horiz-adv-x="1706" d="M315 119l492 491l-492 492l45 45l492 -492l491 492l46 -45l-492 -492l492 -491l-46 -45l-491 491l-492 -491z" />
<glyph unicode="&#xd8;" horiz-adv-x="1688" d="M78 733q0 168 70 319.5t200 268.5q98 87 227.5 134.5t268.5 47.5q135 0 260.5 -44t228.5 -128l160 178l53 -45l-162 -182q114 -130 170 -265.5t56 -283.5q0 -144 -53 -280.5t-152 -245.5q-108 -118 -253 -182t-308 -64q-140 0 -266 46t-228 134l-162 -180l-47 41l162 180 q-110 120 -167.5 260.5t-57.5 290.5zM154 733q0 -140 50.5 -266t147.5 -229l932 1040q-94 80 -202.5 119t-237.5 39q-132 0 -243.5 -42t-207.5 -126q-117 -105 -178 -241.5t-61 -293.5zM397 195q92 -83 204.5 -124.5t242.5 -41.5q131 0 243 41.5t207 126.5 q117 104 178.5 241.5t61.5 294.5q0 140 -50 264.5t-149 231.5z" />
<glyph unicode="&#xd9;" horiz-adv-x="1335" d="M141 573v891l70 21v-920q0 -276 107 -408t329 -132q120 0 217 48.5t158 139.5q46 69 66 157t20 253v841l70 21v-1485l-70 -18v278q-61 -146 -183 -222.5t-292 -76.5q-130 0 -231 47t-169 137q-49 68 -70.5 153.5t-21.5 274.5zM465 1941h109l209 -328h-64z" />
<glyph unicode="&#xda;" horiz-adv-x="1335" d="M141 573v891l70 21v-920q0 -276 107 -408t329 -132q120 0 217 48.5t158 139.5q46 69 66 157t20 253v841l70 21v-1485l-70 -18v278q-61 -146 -183 -222.5t-292 -76.5q-130 0 -231 47t-169 137q-49 68 -70.5 153.5t-21.5 274.5zM553 1613l209 328h109l-254 -328h-64z" />
<glyph unicode="&#xdb;" horiz-adv-x="1335" d="M141 573v891l70 21v-920q0 -276 107 -408t329 -132q120 0 217 48.5t158 139.5q46 69 66 157t20 253v841l70 21v-1485l-70 -18v278q-61 -146 -183 -222.5t-292 -76.5q-130 0 -231 47t-169 137q-49 68 -70.5 153.5t-21.5 274.5zM414 1613l205 328h98l203 -328h-62l-190 273 l-190 -273h-64z" />
<glyph unicode="&#xdc;" horiz-adv-x="1335" d="M141 573v891l70 21v-920q0 -276 107 -408t329 -132q120 0 217 48.5t158 139.5q46 69 66 157t20 253v841l70 21v-1485l-70 -18v278q-61 -146 -183 -222.5t-292 -76.5q-130 0 -231 47t-169 137q-49 68 -70.5 153.5t-21.5 274.5zM439 1757l71 74l72 -74l-72 -72zM756 1757 l70 74l71 -74l-71 -72z" />
<glyph unicode="&#xdd;" horiz-adv-x="1135" d="M41 1452l61 27l478 -928l475 928l59 -29l-752 -1468l-61 22l242 471zM452 1613l209 328h109l-254 -328h-64z" />
<glyph unicode="&#xde;" horiz-adv-x="920" d="M156 -18v1482l71 15v-205h43q249 0 409.5 -141t160.5 -357q0 -221 -151.5 -356t-399.5 -135h-62v-285zM227 352h68q213 0 341 113.5t128 300.5q0 195 -131.5 318.5t-339.5 123.5h-66v-856z" />
<glyph unicode="&#xdf;" horiz-adv-x="887" d="M119 -18v1101q0 188 78.5 283.5t232.5 95.5q144 0 241 -101t97 -249q0 -132 -63.5 -223t-178.5 -123q145 -38 219 -133.5t74 -243.5q0 -180 -122 -299t-312 -119q-18 0 -64 9q-11 2 -18 4l1 67q29 -5 49.5 -7.5t33.5 -2.5q163 0 259.5 96t96.5 254q0 157 -94 247.5 t-258 90.5h-59v71q8 0 17.5 -0.5t27.5 -0.5q144 0 232.5 82.5t88.5 216.5q0 124 -77.5 210.5t-190.5 86.5q-122 0 -183 -78.5t-61 -237.5v-1079z" />
<glyph unicode="&#xe0;" horiz-adv-x="723" d="M72 238q0 112 75.5 188t188.5 76q69 0 119 -27t82 -82v164q0 75 -34 105t-116 30q-20 0 -45 -1.5t-57 -3.5l18 62q24 2 47 2.5t58 0.5q113 0 153.5 -39.5t40.5 -149.5v-555l-61 -22v112q-35 -57 -92.5 -90t-122.5 -33q-111 0 -182.5 74.5t-71.5 188.5zM139 238 q0 -84 57.5 -142.5t139.5 -58.5t139 59t57 142q0 82 -57.5 141t-138.5 59q-83 0 -140 -58t-57 -142zM180 1200h109l209 -328h-64z" />
<glyph unicode="&#xe1;" horiz-adv-x="723" d="M72 238q0 112 75.5 188t188.5 76q69 0 119 -27t82 -82v164q0 75 -34 105t-116 30q-20 0 -45 -1.5t-57 -3.5l18 62q24 2 47 2.5t58 0.5q113 0 153.5 -39.5t40.5 -149.5v-555l-61 -22v112q-35 -57 -92.5 -90t-122.5 -33q-111 0 -182.5 74.5t-71.5 188.5zM139 238 q0 -84 57.5 -142.5t139.5 -58.5t139 59t57 142q0 82 -57.5 141t-138.5 59q-83 0 -140 -58t-57 -142zM268 872l209 328h109l-254 -328h-64z" />
<glyph unicode="&#xe2;" horiz-adv-x="723" d="M72 238q0 112 75.5 188t188.5 76q69 0 119 -27t82 -82v164q0 75 -34 105t-116 30q-20 0 -45 -1.5t-57 -3.5l18 62q24 2 47 2.5t58 0.5q113 0 153.5 -39.5t40.5 -149.5v-555l-61 -22v112q-35 -57 -92.5 -90t-122.5 -33q-111 0 -182.5 74.5t-71.5 188.5zM129 872l205 328 h98l203 -328h-62l-190 273l-190 -273h-64zM139 238q0 -84 57.5 -142.5t139.5 -58.5t139 59t57 142q0 82 -57.5 141t-138.5 59q-83 0 -140 -58t-57 -142z" />
<glyph unicode="&#xe3;" horiz-adv-x="723" d="M72 238q0 112 75.5 188t188.5 76q69 0 119 -27t82 -82v164q0 75 -34 105t-116 30q-20 0 -45 -1.5t-57 -3.5l18 62q24 2 47 2.5t58 0.5q113 0 153.5 -39.5t40.5 -149.5v-555l-61 -22v112q-35 -57 -92.5 -90t-122.5 -33q-111 0 -182.5 74.5t-71.5 188.5zM117 946 q21 64 59.5 95.5t93.5 31.5q12 0 25 -1.5t30 -4.5l116 -25q25 -5 37.5 -6.5t21.5 -1.5q32 0 54.5 15t37.5 47h57q-27 -70 -61.5 -98.5t-89.5 -28.5q-15 0 -32.5 2.5t-37.5 7.5l-113 25q-14 3 -26.5 4.5t-24.5 1.5q-28 0 -49.5 -15t-42.5 -49h-55zM139 238q0 -84 57.5 -142.5 t139.5 -58.5t139 59t57 142q0 82 -57.5 141t-138.5 59q-83 0 -140 -58t-57 -142z" />
<glyph unicode="&#xe4;" horiz-adv-x="723" d="M72 238q0 112 75.5 188t188.5 76q69 0 119 -27t82 -82v164q0 75 -34 105t-116 30q-20 0 -45 -1.5t-57 -3.5l18 62q24 2 47 2.5t58 0.5q113 0 153.5 -39.5t40.5 -149.5v-555l-61 -22v112q-35 -57 -92.5 -90t-122.5 -33q-111 0 -182.5 74.5t-71.5 188.5zM139 238 q0 -84 57.5 -142.5t139.5 -58.5t139 59t57 142q0 82 -57.5 141t-138.5 59q-83 0 -140 -58t-57 -142zM154 1016l71 74l72 -74l-72 -72zM471 1016l70 74l71 -74l-71 -72z" />
<glyph unicode="&#xe5;" horiz-adv-x="723" d="M72 238q0 112 75.5 188t188.5 76q69 0 119 -27t82 -82v164q0 75 -34 105t-116 30q-20 0 -45 -1.5t-57 -3.5l18 62q24 2 47 2.5t58 0.5q113 0 153.5 -39.5t40.5 -149.5v-555l-61 -22v112q-35 -57 -92.5 -90t-122.5 -33q-111 0 -182.5 74.5t-71.5 188.5zM133 1047 q0 95 66.5 162t160.5 67q96 0 163 -67t67 -162q0 -96 -66.5 -162t-163.5 -66q-95 0 -161 66t-66 162zM139 238q0 -84 57.5 -142.5t139.5 -58.5t139 59t57 142q0 82 -57.5 141t-138.5 59q-83 0 -140 -58t-57 -142zM193 1049q0 -71 48.5 -120.5t118.5 -49.5q71 0 120.5 49.5 t49.5 120.5t-49 119.5t-121 48.5q-70 0 -118.5 -49t-48.5 -119z" />
<glyph unicode="&#xe6;" horiz-adv-x="1208" d="M72 238q0 111 75.5 187.5t188.5 76.5q62 0 109.5 -22.5t76.5 -65.5q0 8 1 24t1 23q0 123 -44.5 176t-145.5 53q-4 0 -20.5 -1.5t-28.5 -2.5l18 63q13 2 24.5 2.5t28.5 0.5q95 0 152.5 -44t67.5 -122q48 82 133.5 129t187.5 47q91 0 163.5 -36.5t147.5 -121.5l-608 -366 q45 -97 122 -149t177 -52q57 0 114.5 19.5t119.5 60.5v-72q-55 -35 -113 -52.5t-123 -17.5q-100 0 -182.5 44t-143.5 128q-34 -79 -100.5 -125.5t-144.5 -46.5q-111 0 -182.5 74.5t-71.5 188.5zM139 238q0 -84 57.5 -142.5t139.5 -58.5t139 59t57 142q0 82 -57.5 141 t-138.5 59q-83 0 -140 -58t-57 -142zM573 369q0 -18 1.5 -35.5t5.5 -36.5l522 315q-43 44 -92.5 64t-110.5 20q-137 0 -231.5 -94.5t-94.5 -232.5z" />
<glyph unicode="&#xe7;" horiz-adv-x="719" d="M63 367q0 165 114 280t278 115q72 0 133 -14.5t106 -42.5l-14 -68q-59 32 -111 45.5t-114 13.5q-135 0 -227.5 -94.5t-92.5 -232.5q0 -139 92 -234.5t228 -95.5q59 0 117.5 19.5t115.5 58.5l12 -62q-50 -40 -113 -61t-132 -21q-164 0 -278 114.5t-114 279.5zM211 -358 q58 -16 114.5 -23.5t110.5 -7.5q67 0 103.5 27t36.5 77q0 61 -39.5 88t-126.5 27q-19 0 -29.5 -0.5t-19.5 -1.5l34 172h41l-24 -121h16q103 0 155 -38.5t52 -114.5q0 -81 -53.5 -125.5t-151.5 -44.5q-51 0 -105.5 8.5t-113.5 25.5v52z" />
<glyph unicode="&#xe8;" horiz-adv-x="766" d="M66 367q0 168 112.5 281.5t276.5 113.5q91 0 162 -36t147 -122l-606 -366q44 -97 120.5 -148t176.5 -51q60 0 117.5 19t115.5 59v-72q-56 -36 -113.5 -54t-119.5 -18q-165 0 -277 113t-112 281zM129 373q0 -27 1.5 -43.5t4.5 -32.5l522 315q-43 44 -92.5 64t-109.5 20 q-136 0 -231 -95t-95 -228zM227 1200h109l209 -328h-64z" />
<glyph unicode="&#xe9;" horiz-adv-x="766" d="M66 367q0 168 112.5 281.5t276.5 113.5q91 0 162 -36t147 -122l-606 -366q44 -97 120.5 -148t176.5 -51q60 0 117.5 19t115.5 59v-72q-56 -36 -113.5 -54t-119.5 -18q-165 0 -277 113t-112 281zM129 373q0 -27 1.5 -43.5t4.5 -32.5l522 315q-43 44 -92.5 64t-109.5 20 q-136 0 -231 -95t-95 -228zM315 872l209 328h109l-254 -328h-64z" />
<glyph unicode="&#xea;" horiz-adv-x="766" d="M66 367q0 168 112.5 281.5t276.5 113.5q91 0 162 -36t147 -122l-606 -366q44 -97 120.5 -148t176.5 -51q60 0 117.5 19t115.5 59v-72q-56 -36 -113.5 -54t-119.5 -18q-165 0 -277 113t-112 281zM129 373q0 -27 1.5 -43.5t4.5 -32.5l522 315q-43 44 -92.5 64t-109.5 20 q-136 0 -231 -95t-95 -228zM176 872l205 328h98l203 -328h-62l-190 273l-190 -273h-64z" />
<glyph unicode="&#xeb;" horiz-adv-x="766" d="M66 367q0 168 112.5 281.5t276.5 113.5q91 0 162 -36t147 -122l-606 -366q44 -97 120.5 -148t176.5 -51q60 0 117.5 19t115.5 59v-72q-56 -36 -113.5 -54t-119.5 -18q-165 0 -277 113t-112 281zM129 373q0 -27 1.5 -43.5t4.5 -32.5l522 315q-43 44 -92.5 64t-109.5 20 q-136 0 -231 -95t-95 -228zM201 1016l71 74l72 -74l-72 -72zM518 1016l70 74l71 -74l-71 -72z" />
<glyph unicode="&#xec;" horiz-adv-x="328" d="M-39 1200h109l209 -328h-64zM131 -18v743l66 18v-743z" />
<glyph unicode="&#xed;" horiz-adv-x="328" d="M49 872l209 328h109l-254 -328h-64zM131 -18v743l66 18v-743z" />
<glyph unicode="&#xee;" horiz-adv-x="328" d="M-90 872l205 328h98l203 -328h-62l-190 273l-190 -273h-64zM131 -18v743l66 18v-743z" />
<glyph unicode="&#xef;" horiz-adv-x="328" d="M-65 1016l71 74l72 -74l-72 -72zM131 -18v743l66 18v-743zM252 1016l70 74l71 -74l-71 -72z" />
<glyph unicode="&#xf0;" horiz-adv-x="909" d="M63 367q0 165 114 280t278 115q44 0 93 -13t101 -38l-209 370l-266 -139l-22 49l262 135l-183 332l50 27l184 -332l262 133l23 -49l-261 -133l269 -473q45 -79 65.5 -141.5t20.5 -122.5q0 -169 -112.5 -281.5t-276.5 -112.5t-278 114.5t-114 279.5zM135 369 q0 -140 92 -235t228 -95q134 0 227.5 96t93.5 234q0 137 -92.5 232t-228.5 95q-135 0 -227.5 -94.5t-92.5 -232.5z" />
<glyph unicode="&#xf1;" horiz-adv-x="799" d="M121 -18v735l65 18v-127q39 67 106.5 105.5t145.5 38.5q126 0 186 -76.5t60 -237.5v-438l-68 -18v458q0 126 -48.5 187t-147.5 61t-166.5 -78t-67.5 -194v-416zM133 946q21 64 59.5 95.5t93.5 31.5q12 0 25 -1.5t30 -4.5l116 -25q25 -5 37.5 -6.5t21.5 -1.5q32 0 54.5 15 t37.5 47h57q-27 -70 -61.5 -98.5t-89.5 -28.5q-15 0 -32.5 2.5t-37.5 7.5l-113 25q-14 3 -26.5 4.5t-24.5 1.5q-28 0 -49.5 -15t-42.5 -49h-55z" />
<glyph unicode="&#xf2;" horiz-adv-x="909" d="M63 367q0 165 114 280t278 115t278.5 -115.5t114.5 -279.5q0 -163 -114.5 -278.5t-278.5 -115.5t-278 114.5t-114 279.5zM135 369q0 -139 92 -234.5t228 -95.5q134 0 227.5 96t93.5 234q0 136 -93.5 231.5t-227.5 95.5q-135 0 -227.5 -95t-92.5 -232zM252 1200h109 l209 -328h-64z" />
<glyph unicode="&#xf3;" horiz-adv-x="909" d="M63 367q0 165 114 280t278 115t278.5 -115.5t114.5 -279.5q0 -163 -114.5 -278.5t-278.5 -115.5t-278 114.5t-114 279.5zM135 369q0 -139 92 -234.5t228 -95.5q134 0 227.5 96t93.5 234q0 136 -93.5 231.5t-227.5 95.5q-135 0 -227.5 -95t-92.5 -232zM340 872l209 328 h109l-254 -328h-64z" />
<glyph unicode="&#xf4;" horiz-adv-x="909" d="M63 367q0 165 114 280t278 115t278.5 -115.5t114.5 -279.5q0 -163 -114.5 -278.5t-278.5 -115.5t-278 114.5t-114 279.5zM135 369q0 -139 92 -234.5t228 -95.5q134 0 227.5 96t93.5 234q0 136 -93.5 231.5t-227.5 95.5q-135 0 -227.5 -95t-92.5 -232zM201 872l205 328h98 l203 -328h-62l-190 273l-190 -273h-64z" />
<glyph unicode="&#xf5;" horiz-adv-x="909" d="M63 367q0 165 114 280t278 115t278.5 -115.5t114.5 -279.5q0 -163 -114.5 -278.5t-278.5 -115.5t-278 114.5t-114 279.5zM135 369q0 -139 92 -234.5t228 -95.5q134 0 227.5 96t93.5 234q0 136 -93.5 231.5t-227.5 95.5q-135 0 -227.5 -95t-92.5 -232zM189 946 q21 64 59.5 95.5t93.5 31.5q12 0 25 -1.5t30 -4.5l116 -25q25 -5 37.5 -6.5t21.5 -1.5q32 0 54.5 15t37.5 47h57q-27 -70 -61.5 -98.5t-89.5 -28.5q-15 0 -32.5 2.5t-37.5 7.5l-113 25q-14 3 -26.5 4.5t-24.5 1.5q-28 0 -49.5 -15t-42.5 -49h-55z" />
<glyph unicode="&#xf6;" horiz-adv-x="909" d="M63 367q0 165 114 280t278 115t278.5 -115.5t114.5 -279.5q0 -163 -114.5 -278.5t-278.5 -115.5t-278 114.5t-114 279.5zM135 369q0 -139 92 -234.5t228 -95.5q134 0 227.5 96t93.5 234q0 136 -93.5 231.5t-227.5 95.5q-135 0 -227.5 -95t-92.5 -232zM226 1016l71 74 l72 -74l-72 -72zM543 1016l70 74l71 -74l-71 -72z" />
<glyph unicode="&#xf7;" horiz-adv-x="1706" d="M254 580v61h1198v-61h-1198zM762 270q0 38 27.5 65t64.5 27q38 0 64 -25.5t26 -64.5q0 -37 -26.5 -64.5t-63.5 -27.5q-38 0 -65 26.5t-27 63.5zM762 948q0 37 27.5 64.5t64.5 27.5t63.5 -27t26.5 -65t-26 -64t-64 -26q-39 0 -65.5 26t-26.5 64z" />
<glyph unicode="&#xf8;" horiz-adv-x="909" d="M55 -31l113 125q-54 68 -79.5 134.5t-25.5 138.5q0 164 114.5 279.5t277.5 115.5q65 0 125 -20.5t116 -61.5l115 127l39 -39l-115 -127q57 -64 85 -132.5t28 -141.5q0 -163 -114.5 -278.5t-278.5 -115.5q-68 0 -131.5 22t-114.5 62l-113 -127zM135 369q0 -64 21 -122.5 t59 -99.5l434 482q-38 33 -87.5 50t-106.5 17q-135 0 -227.5 -94.5t-92.5 -232.5zM256 109q44 -35 94 -52.5t105 -17.5q134 0 227.5 96.5t93.5 233.5q0 64 -21 118t-65 101z" />
<glyph unicode="&#xf9;" horiz-adv-x="799" d="M115 287v438l67 18v-456q0 -126 48 -187t147 -61q98 0 165.5 77.5t67.5 192.5v416l68 18v-733l-68 -18v125q-37 -66 -103.5 -104t-146.5 -38q-127 0 -186 75t-59 237zM196 1200h109l209 -328h-64z" />
<glyph unicode="&#xfa;" horiz-adv-x="799" d="M115 287v438l67 18v-456q0 -126 48 -187t147 -61q98 0 165.5 77.5t67.5 192.5v416l68 18v-733l-68 -18v125q-37 -66 -103.5 -104t-146.5 -38q-127 0 -186 75t-59 237zM284 872l209 328h109l-254 -328h-64z" />
<glyph unicode="&#xfb;" horiz-adv-x="799" d="M115 287v438l67 18v-456q0 -126 48 -187t147 -61q98 0 165.5 77.5t67.5 192.5v416l68 18v-733l-68 -18v125q-37 -66 -103.5 -104t-146.5 -38q-127 0 -186 75t-59 237zM145 872l205 328h98l203 -328h-62l-190 273l-190 -273h-64z" />
<glyph unicode="&#xfc;" horiz-adv-x="799" d="M115 287v438l67 18v-456q0 -126 48 -187t147 -61q98 0 165.5 77.5t67.5 192.5v416l68 18v-733l-68 -18v125q-37 -66 -103.5 -104t-146.5 -38q-127 0 -186 75t-59 237zM170 1016l71 74l72 -74l-72 -72zM487 1016l70 74l71 -74l-71 -72z" />
<glyph unicode="&#xfd;" horiz-adv-x="772" d="M29 715l61 30l311 -606l297 602l58 -28l-531 -1059l-59 29l199 389zM272 872l209 328h109l-254 -328h-64z" />
<glyph unicode="&#xfe;" horiz-adv-x="965" d="M121 -336v1800l65 21v-924q52 95 137 148t187 53q163 0 277 -116t114 -279q0 -164 -113.5 -279t-277.5 -115q-108 0 -194.5 51t-129.5 140v-481zM188 369q0 -138 93.5 -234t228.5 -96t228 96t93 234q0 136 -93.5 231.5t-227.5 95.5t-228 -95t-94 -232z" />
<glyph unicode="&#xff;" horiz-adv-x="772" d="M29 715l61 30l311 -606l297 602l58 -28l-531 -1059l-59 29l199 389zM158 1016l71 74l72 -74l-72 -72zM475 1016l70 74l71 -74l-71 -72z" />
<glyph unicode="&#x152;" horiz-adv-x="1985" d="M78 733q0 168 70 319.5t200 268.5q98 87 227.5 134.5t268.5 47.5q70 0 130.5 -9.5t117.5 -29.5h772l24 -63h-659q160 -90 258.5 -248.5t120.5 -361.5h250v-64h-248q-8 -217 -107.5 -387t-281.5 -274h718l-26 -66h-826q-68 -20 -128.5 -29.5t-114.5 -9.5 q-139 0 -267.5 47.5t-228.5 134.5q-130 115 -200 268t-70 322zM154 733q0 -295 199.5 -499.5t490.5 -204.5t490.5 204.5t199.5 499.5t-200 499t-490 204q-291 0 -490.5 -204t-199.5 -499z" />
<glyph unicode="&#x153;" horiz-adv-x="1477" d="M63 367q0 164 114.5 279.5t277.5 115.5q116 0 211.5 -61t144.5 -166q47 104 143 165.5t211 61.5q92 0 164 -36.5t148 -121.5l-609 -366q50 -100 124 -149.5t175 -49.5q59 0 116.5 19t117.5 59v-72q-56 -36 -114.5 -54t-121.5 -18q-115 0 -209 60t-147 168 q-49 -105 -145 -166.5t-209 -61.5q-164 0 -278 115t-114 279zM135 369q0 -140 92 -235t228 -95q134 0 227.5 96t93.5 234q0 136 -93.5 231.5t-227.5 95.5q-135 0 -227.5 -94.5t-92.5 -232.5zM842 369q0 -19 1.5 -36.5t4.5 -35.5l522 315q-43 44 -92.5 64t-110.5 20 q-136 0 -230.5 -94.5t-94.5 -232.5z" />
<glyph unicode="&#x178;" horiz-adv-x="1135" d="M41 1452l61 27l478 -928l475 928l59 -29l-752 -1468l-61 22l242 471zM338 1757l71 74l72 -74l-72 -72zM655 1757l70 74l71 -74l-71 -72z" />
<glyph unicode="&#x2c6;" horiz-adv-x="1024" d="M258 872l205 328h98l203 -328h-62l-190 273l-190 -273h-64z" />
<glyph unicode="&#x2dc;" horiz-adv-x="1024" d="M246 946q21 64 59.5 95.5t93.5 31.5q12 0 25 -1.5t30 -4.5l116 -25q25 -5 37.5 -6.5t21.5 -1.5q32 0 54.5 15t37.5 47h57q-27 -70 -61.5 -98.5t-89.5 -28.5q-15 0 -32.5 2.5t-37.5 7.5l-113 25q-14 3 -26.5 4.5t-24.5 1.5q-28 0 -49.5 -15t-42.5 -49h-55z" />
<glyph unicode="&#x2000;" horiz-adv-x="1009" />
<glyph unicode="&#x2001;" horiz-adv-x="2019" />
<glyph unicode="&#x2002;" horiz-adv-x="1009" />
<glyph unicode="&#x2003;" horiz-adv-x="2019" />
<glyph unicode="&#x2004;" horiz-adv-x="673" />
<glyph unicode="&#x2005;" horiz-adv-x="504" />
<glyph unicode="&#x2006;" horiz-adv-x="336" />
<glyph unicode="&#x2007;" horiz-adv-x="336" />
<glyph unicode="&#x2008;" horiz-adv-x="252" />
<glyph unicode="&#x2009;" horiz-adv-x="403" />
<glyph unicode="&#x200a;" horiz-adv-x="112" />
<glyph unicode="&#x2010;" horiz-adv-x="541" d="M106 340v66h328v-66h-328z" />
<glyph unicode="&#x2011;" horiz-adv-x="541" d="M106 340v66h328v-66h-328z" />
<glyph unicode="&#x2012;" horiz-adv-x="541" d="M106 340v66h328v-66h-328z" />
<glyph unicode="&#x2013;" horiz-adv-x="1024" d="M0 344v57h1024v-57h-1024z" />
<glyph unicode="&#x2014;" horiz-adv-x="2048" d="M0 344v57h2048v-57h-2048z" />
<glyph unicode="&#x2018;" horiz-adv-x="455" d="M160 1290q0 56 20 108t60 99l51 -37q-30 -43 -46 -86.5t-16 -83.5q0 -39 15.5 -81.5t46.5 -86.5l-51 -39q-40 47 -60 100t-20 107z" />
<glyph unicode="&#x2019;" horiz-adv-x="455" d="M160 1122q30 44 45.5 86.5t15.5 81.5q0 40 -15.5 83.5t-45.5 86.5l51 37q40 -49 60 -101t20 -106t-20.5 -107t-59.5 -100z" />
<glyph unicode="&#x201a;" horiz-adv-x="455" d="M160 150l51 38q40 -49 60 -100.5t20 -105.5q0 -55 -20.5 -107.5t-59.5 -99.5l-51 37q30 43 45.5 86.5t15.5 83.5q0 38 -15.5 81t-45.5 87z" />
<glyph unicode="&#x201c;" horiz-adv-x="729" d="M160 1290q0 56 20 108t60 99l51 -37q-30 -43 -46 -86.5t-16 -83.5q0 -39 15.5 -81.5t46.5 -86.5l-51 -39q-40 47 -60 100t-20 107zM434 1290q0 54 20.5 106t61.5 101l49 -37q-30 -43 -45.5 -86.5t-15.5 -83.5q0 -39 15.5 -81.5t45.5 -86.5l-49 -39q-40 48 -61 101 t-21 106z" />
<glyph unicode="&#x201d;" horiz-adv-x="729" d="M160 1122q30 44 45.5 86.5t15.5 81.5q0 40 -15.5 83.5t-45.5 86.5l51 37q40 -49 60 -101t20 -106t-20.5 -107t-59.5 -100zM434 1122q31 44 46.5 86.5t15.5 81.5q0 40 -16 83.5t-46 86.5l51 37q40 -49 60 -101t20 -106t-20 -107t-60 -100z" />
<glyph unicode="&#x201e;" horiz-adv-x="729" d="M160 150l51 38q40 -49 60 -100.5t20 -105.5q0 -55 -20.5 -107.5t-59.5 -99.5l-51 37q30 43 45.5 86.5t15.5 83.5q0 38 -15.5 81t-45.5 87zM434 150l51 38q40 -46 60 -99t20 -107t-20 -106t-60 -101l-51 37q30 43 46 86.5t16 83.5q0 38 -15.5 81t-46.5 87z" />
<glyph unicode="&#x2022;" horiz-adv-x="1208" d="M307 762q0 123 87 209t210 86q122 0 208.5 -86.5t86.5 -208.5t-87.5 -209.5t-209.5 -87.5q-123 0 -209 87t-86 210z" />
<glyph unicode="&#x2026;" horiz-adv-x="2048" d="M272 51l70 72l69 -72l-69 -71zM954 51l70 72l69 -72l-69 -71zM1638 51l70 72l69 -72l-69 -71z" />
<glyph unicode="&#x202f;" horiz-adv-x="403" />
<glyph unicode="&#x2039;" horiz-adv-x="418" d="M57 348l242 246l37 -43l-193 -203l193 -201l-37 -43z" />
<glyph unicode="&#x203a;" horiz-adv-x="418" d="M82 147l192 201l-192 203l37 43l241 -246l-241 -244z" />
<glyph unicode="&#x205f;" horiz-adv-x="504" />
<glyph unicode="&#x20ac;" d="M16 541l11 47h116q-1 11 -1.5 24t-0.5 39q0 16 1 35.5t3 56.5h-129l11 48h125q37 240 189.5 389t363.5 149q96 0 190.5 -39.5t169.5 -111.5l-41 -54q-70 69 -152 105.5t-167 36.5q-186 0 -317.5 -130.5t-166.5 -344.5h678l-10 -48h-674q-2 -15 -3 -34t-1 -58 q0 -26 0.5 -39.5t1.5 -23.5h631l-10 -47h-615q30 -222 162.5 -361t316.5 -139q98 0 181 37t159 112l39 -51q-71 -75 -171 -118.5t-201 -43.5q-219 0 -372.5 157t-185.5 407h-131z" />
<glyph unicode="&#x2122;" horiz-adv-x="1706" d="M285 1411v41h409v-41h-174v-485h-57v485h-178zM827 926v526h88l181 -455l168 455h86v-526h-47v489l-185 -489h-45l-196 489v-489h-50z" />
<glyph unicode="&#x25fc;" horiz-adv-x="750" d="M0 0v750h750v-750h-750z" />
</font>
</defs>
</svg>
